<?xml version="1.0" encoding="UTF-8" standalone="no"?>
<svg
   width="16"
   height="16"
   fill-rule="evenodd"
   clip-rule="evenodd"
   image-rendering="optimizeQuality"
   shape-rendering="geometricPrecision"
   text-rendering="geometricPrecision"
   viewBox="0 0 166.70023 166.70023"
   version="1.1"
   id="svg22"
   sodipodi:docname="administrator.svg"
   inkscape:export-filename="administrator.png"
   inkscape:export-xdpi="96"
   inkscape:export-ydpi="96"
   inkscape:version="1.2.1 (9c6d41e410, 2022-07-14)"
   xmlns:inkscape="http://www.inkscape.org/namespaces/inkscape"
   xmlns:sodipodi="http://sodipodi.sourceforge.net/DTD/sodipodi-0.dtd"
   xmlns="http://www.w3.org/2000/svg"
   xmlns:svg="http://www.w3.org/2000/svg">
  <defs
     id="defs26" />
  <sodipodi:namedview
     id="namedview24"
     pagecolor="#ffffff"
     bordercolor="#000000"
     borderopacity="0.25"
     inkscape:showpageshadow="2"
     inkscape:pageopacity="0.0"
     inkscape:pagecheckerboard="0"
     inkscape:deskcolor="#d1d1d1"
     showgrid="false"
     inkscape:zoom="17.850411"
     inkscape:cx="-2.8010559"
     inkscape:cy="8.5152099"
     inkscape:window-width="1366"
     inkscape:window-height="697"
     inkscape:window-x="-8"
     inkscape:window-y="-8"
     inkscape:window-maximized="1"
     inkscape:current-layer="svg22" />
  <path
     fill="#2b1330"
     d="m 37.348093,103.12407 c -7.096954,0 -12.842105,-5.745155 -12.842105,-12.842105 0,-7.096951 5.745149,-12.926589 12.842104,-12.926589 7.096943,0 12.92659,5.74515 12.92659,12.926589 -0.08444,7.09695 -5.829647,12.842105 -12.926589,12.842105 z M 68.01705,52.516046 c 0.08444,-0.844874 0.168974,-1.774237 0.422444,-2.7036 1.689742,-8.279775 6.590029,-14.531852 14.193898,-17.826865 0.422444,-0.253462 0.929359,-0.253462 1.351803,0 0.422433,0.168975 0.760383,0.506926 0.929359,0.929363 3.970915,11.067864 13.095566,9.209139 26.613576,5.153738 4.56232,-1.351799 8.95567,-2.7036 12.58863,-2.788088 1.52078,-0.08448 2.87259,0.08448 4.0554,0.506925 -1.43628,-3.210525 -3.46399,-5.914126 -5.66066,-8.026313 C 112.03505,17.200267 94.37715,13.567304 88.463037,16.693341 c -1.436297,0.844876 -1.943223,1.858726 -1.605272,3.548476 0.08444,0.422437 0,0.929362 -0.337951,1.351801 -0.253457,0.33795 -0.67589,0.591413 -1.182816,0.675899 -8.955684,0.6759 -14.954293,3.717452 -17.826873,8.955677 -3.463979,6.421051 -1.689742,15.123265 0.506925,21.290852 z m 65.13988,-11.997225 v 0.168974 c 0.0844,0.253463 0.16898,0.506925 0.0844,0.760388 0.84487,6.083101 -0.42244,12.588639 -3.88643,19.34764 3.71745,3.886425 5.23823,7.688363 4.56233,11.236838 -0.84488,4.815788 -5.57618,7.688364 -7.51939,8.702214 -2.11219,10.391964 -6.59003,15.545703 -9.12465,17.742377 -0.42244,0.337951 -0.76039,1.098338 -1.01385,2.027698 0,0.25347 -0.0844,0.50693 -0.16897,0.6759 -0.42244,2.11219 -0.16898,3.97092 0.16897,4.39335 l 0.84488,0.50693 c 4.39335,3.12604 4.98475,3.54847 10.47645,5.32271 26.78253,8.70222 27.036,23.31856 27.036,24.41689 v 18.33379 c 0,1.01385 -0.76038,1.68976 -1.68975,1.68976 H 92.77185 92.68745 44.191624 c -0.929371,0 -1.689754,-0.76039 -1.689754,-1.68976 0,0 0,0 0,0 v -18.33379 c 0,-1.01385 0.168975,-14.36287 23.403039,-23.06508 0.168974,-0.0845 0.422444,-0.16898 0.675901,-0.25347 0.08444,-0.0845 0.168974,-0.16897 0.253469,-0.16897 0.08455,0 0.253457,-0.0845 0.33795,-0.0845 0.929359,-0.33795 1.689743,-0.59142 2.450138,-0.92937 2.365644,-0.84487 3.886422,-1.3518 5.576176,-2.19667 0,-0.0845 0.08444,-0.0845 0.168975,-0.0845 1.436285,-0.76039 3.041546,-1.77424 5.491683,-3.46399 0.337951,-0.33795 0.675902,-2.45014 0.08455,-4.81579 v 0 h -0.08455 c -0.253457,-1.098335 -0.760384,-1.94321 -1.182828,-2.365647 -2.534619,-2.196676 -6.843485,-7.350414 -9.040164,-17.657891 -1.943212,-1.01385 -6.590018,-3.801938 -7.519388,-8.702214 -0.675902,-3.548475 0.844876,-7.350413 4.562323,-11.236838 -2.112187,-4.393351 -9.124647,-20.108028 -3.126027,-31.175892 3.21052,-5.914125 9.54708,-9.462602 18.756221,-10.560939 0.08444,-2.281163 1.26731,-4.055401 3.46399,-5.322713 3.80194,-2.027701 10.476452,-1.943213 17.826862,0.08449 7.94183,2.281163 15.12327,6.336563 20.277,11.574789 4.47784,4.477837 7.26593,9.547088 8.27978,15.123265 z m -3.21053,1.098337 c -2.0277,-4.731301 -8.02632,-3.210525 -17.48891,-0.33795 -5.82964,1.774238 -11.82826,3.548476 -17.31994,3.210525 -5.91413,-0.33795 -10.222996,-3.210525 -12.673133,-8.702214 -5.745152,3.041551 -9.293624,7.857339 -10.729909,14.61634 -1.098345,5.576176 -0.253468,10.307476 -0.253468,10.391964 0.168975,0.6759 -0.168975,1.267313 -0.675901,1.68975 -3.379498,3.295013 -4.815782,6.252075 -4.308856,8.955676 0.760384,4.224376 6.252066,6.505538 6.33656,6.590026 0.506926,0.168975 0.844877,0.6759 1.013852,1.182825 1.858718,9.969527 5.829633,14.700827 8.026313,16.64404 1.013853,0.844875 1.605261,2.027701 2.027694,3.126038 4.646817,1.351802 9.631588,2.027702 14.869808,2.027702 5.06925,0 9.88504,-0.59141 14.36288,-1.858727 0.42243,-1.098338 1.01385,-2.36565 2.0277,-3.210526 2.19667,-1.943212 6.25207,-6.674513 8.1108,-16.728527 0.16897,-0.506925 0.50692,-1.01385 1.01385,-1.182825 0.0844,-0.08448 5.57618,-2.36565 6.33656,-6.590026 0.50693,-2.703601 -1.01384,-5.745151 -4.47783,-9.124651 -0.59142,-0.506925 -0.6759,-1.3518 -0.33795,-2.0277 4.0554,-7.265926 4.90027,-13.518002 4.13988,-18.67174 z M 84.576603,102.70163 c 0.168975,2.19667 -0.253457,4.56232 -1.858718,5.66066 -0.675901,0.50693 -1.436296,0.92936 -2.027704,1.3518 1.351803,0.25346 2.788088,0.42244 4.308866,0.6759 0.168976,-0.0845 0.253458,0 0.422433,0 4.139891,0.42244 8.53324,0.6759 13.18006,0.6759 6.33656,0 12.50414,-0.42244 17.82686,-1.3518 -0.42244,-0.25346 -0.84488,-0.50692 -1.26731,-0.84487 l -0.84488,-0.59142 c -1.43628,-1.01385 -1.94321,-3.21052 -1.77423,-5.49168 -4.39336,1.01385 -9.04017,1.60526 -13.77147,1.60526 -4.90027,0 -9.631583,-0.59141 -14.193907,-1.68975 z m -8.364264,9.63158 c -1.60526,0.84487 -3.210521,1.3518 -5.407201,2.19667 l -1.098334,0.33795 10.054018,24.75484 16.306088,-13.518 -11.828258,-12.41966 c -2.87257,-0.33795 -5.576176,-0.84488 -8.026313,-1.3518 z m -9.716057,3.71745 c -10.729919,4.13989 -15.799167,9.29362 -18.08033,12.84209 -2.53463,3.88644 -2.53463,6.8435 -2.53463,6.8435 0,0 0,0 0,0 v 16.72853 h 44.947359 l -1.26731,-11.99723 -2.112187,-2.78809 -7.350411,5.99861 c -0.168976,0.33795 -0.59142,0.42245 -1.013853,0.42245 -0.08444,0 -0.253468,0 -0.422444,0 -0.506926,-0.16898 -0.929359,-0.50693 -1.098334,-1.01386 z m 27.711908,36.41412 h 8.7022 l 1.18283,-10.98338 H 93.10984 Z m 12.08171,0 h 44.94736 v -16.72853 c 0,0 0,0 0,0 0,-0.0844 0,-3.29501 -2.95706,-7.4349 -2.45014,-3.46399 -7.5194,-8.27978 -17.74238,-12.25069 l -10.98338,27.036 c -0.25347,0.50693 -0.6759,0.84488 -1.18283,1.01386 -0.0845,0 -0.25345,0 -0.33795,0 -0.42243,0 -0.76038,-0.0846 -1.09833,-0.33796 l -7.26593,-6.0831 -2.11219,2.78809 z m 21.12188,-37.59695 c -0.25347,-0.0845 -0.59141,-0.16897 -0.84488,-0.25346 -2.78809,-0.92936 -4.47784,-1.52078 -5.91413,-2.19667 -2.36564,0.50692 -4.98475,0.92936 -7.77284,1.26731 l -11.91275,12.50415 9.29364,7.68836 c 0.0844,0 0.0844,0.0844 0.16897,0.0844 0.0844,0.0844 0.16897,0.16897 0.25346,0.25347 l 6.59003,5.49168 z m -11.06787,-9.29363 z m -17.74237,8.8712 c -3.21054,0 -6.25208,-0.0845 -9.209144,-0.33795 l 9.124644,9.71606 9.20915,-9.63158 c -2.95707,0.16898 -5.99861,0.25347 -9.12465,0.25347 z m -0.0844,14.02492 -8.53324,7.01246 2.02769,2.61911 h 13.09558 l 1.94321,-2.53461 z M 43.008807,117.65592 H 31.687481 c -0.929359,0 -1.689754,-0.76039 -1.689754,-1.68975 v -5.82964 c -2.281162,-0.84488 -4.39335,-2.11219 -6.167585,-3.63296 l -5.069251,2.95706 c -0.844876,0.50692 -1.858728,0.16897 -2.281161,-0.59141 l -5.66067,-9.800555 c -0.253457,-0.33795 -0.33795,-0.844875 -0.168975,-1.267312 0.08455,-0.422438 0.337952,-0.760388 0.760395,-1.01385 l 5.069249,-2.957063 c -0.168975,-1.182826 -0.337951,-2.365651 -0.337951,-3.548475 0,-1.182826 0.168976,-2.365651 0.337951,-3.548476 L 11.41048,83.776426 c -0.422444,-0.253463 -0.675902,-0.591412 -0.760396,-1.01385 -0.168974,-0.422438 -0.08444,-0.929363 0.168975,-1.3518 l 5.66067,-9.716064 c 0.422432,-0.844875 1.436285,-1.098338 2.281162,-0.591413 l 5.069251,2.872576 c 1.85873,-1.520775 3.970915,-2.703601 6.167585,-3.548476 v -5.829638 c 0,-0.929363 0.760395,-1.689751 1.689754,-1.689751 h 11.321326 c 0.929359,0 1.689754,0.760388 1.689754,1.689751 v 5.829638 c 2.196669,0.844875 4.308854,2.027701 6.167583,3.548476 l 5.069252,-2.872576 c 0.760383,-0.506925 1.774235,-0.253462 2.281162,0.591413 l 5.660669,9.716064 c 0.253457,0.422437 0.253457,0.844874 0.168975,1.3518 -0.08455,0.422438 -0.422443,0.760387 -0.760394,1.01385 l -5.06925,2.872575 c 0.168974,1.182825 0.25347,2.450138 0.25347,3.632964 0,1.182824 -0.08444,2.365649 -0.25347,3.548475 l 5.06925,2.957063 c 0.337951,0.168974 0.675899,0.591412 0.760394,1.01385 0.08444,0.422437 0.08444,0.844875 -0.168975,1.267312 l -5.660669,9.716065 c -0.506926,0.84487 -1.520778,1.09834 -2.281162,0.6759 l -5.069252,-2.95706 c -1.858729,1.52077 -3.970912,2.78808 -6.167583,3.54847 v 5.91413 c 0,0.92936 -0.760395,1.68975 -1.689754,1.68975 z m -9.631573,-3.3795 h 7.941821 v -5.4072 c 0,-0.6759 0.422443,-1.3518 1.182826,-1.60527 2.619114,-0.76038 5.06925,-2.19667 7.01246,-4.0554 0.506926,-0.50692 1.351803,-0.59141 2.027706,-0.16897 l 4.646818,2.7036 3.970902,-6.843489 -4.646806,-2.703601 c -0.6759,-0.33795 -1.013851,-1.098337 -0.844876,-1.858725 0.33795,-1.3518 0.506926,-2.703601 0.506926,-4.0554 0,-1.351801 -0.168976,-2.703601 -0.506926,-4.055401 -0.168975,-0.760387 0.168976,-1.436288 0.844876,-1.858725 l 4.646806,-2.7036 -3.970903,-6.84349 -4.646818,2.703601 c -0.675902,0.337951 -1.520779,0.253463 -2.027705,-0.253462 -2.027692,-1.858726 -4.393347,-3.210525 -7.01246,-4.055401 -0.6759,-0.168976 -1.182826,-0.844875 -1.182826,-1.605263 v -5.322713 h -7.941821 v 5.322713 c 0,0.760388 -0.506926,1.436287 -1.182826,1.605263 -2.619115,0.844876 -5.069251,2.196675 -7.012462,4.055401 -0.506926,0.506925 -1.351804,0.591413 -2.027705,0.253462 l -4.646806,-2.703601 -3.970914,6.84349 4.646806,2.7036 c 0.675901,0.33795 0.92937,1.098338 0.760394,1.858725 -0.253468,1.3518 -0.422444,2.7036 -0.422444,4.055401 0,1.351799 0.168976,2.7036 0.422444,4.0554 0.168976,0.760388 -0.168975,1.436287 -0.760394,1.858725 l -4.646806,2.703601 3.970914,6.843489 4.646806,-2.7036 c 0.675901,-0.42244 1.436284,-0.33795 2.027705,0.16897 1.943211,1.85873 4.393348,3.29502 7.012462,4.0554 0.675899,0.25347 1.182825,0.92937 1.182825,1.60527 z M 37.34815,80.734875 c -5.238225,0 -9.547092,4.308863 -9.547092,9.54709 0,5.238225 4.308867,9.547088 9.547092,9.547088 5.238225,0 9.54708,-4.308863 9.54708,-9.547088 -0.08455,-5.238227 -4.308855,-9.54709 -9.54708,-9.54709 z"
     id="path2"
     style="stroke-width:0.0844875" />
  <polygon
     fill="#fd003a"
     points="1143,1463 1042,1379 941,1462 965,1493 1120,1493 "
     id="polygon4"
     transform="matrix(0.08448751,0,0,0.08448751,10.481054,11.962041)" />
  <path
     fill="#e0e0de"
     d="m 100.96718,126.18916 9.29364,7.68836 c 0.0844,0 0.0844,0.0844 0.16897,0.0844 0.0844,0.0844 0.16897,0.16897 0.25346,0.25347 l 6.59003,5.49168 10.1385,-24.83932 -0.84488,-0.25346 c -2.78809,-0.92937 -4.47784,-1.52078 -5.91413,-2.19668 -2.36564,0.50693 -4.98475,0.92936 -7.77284,1.26731 z m -21.206358,13.43351 16.306088,-13.518 -11.828258,-12.41966 c -2.87257,-0.33795 -5.576176,-0.84488 -8.026313,-1.3518 -1.60526,0.84487 -3.210521,1.3518 -5.407201,2.19667 l -1.098334,0.33795 z"
     id="path6"
     style="stroke-width:0.0844875" />
  <path
     fill="#feb784"
     d="m 89.392396,114.10745 9.124644,9.71606 9.20915,-9.63158 c -2.95707,0.16898 -5.99861,0.25347 -9.12465,0.25347 -3.21053,0 -6.25208,-0.0845 -9.209144,-0.33795 z m 9.209144,-3.04156 c 6.33656,0 12.50414,-0.42244 17.82686,-1.3518 l -1.26731,-0.84487 -0.84488,-0.59142 c -1.43628,-1.01385 -1.94321,-3.21052 -1.77423,-5.49168 -4.39336,1.01385 -9.04017,1.60526 -13.77147,1.60526 -4.90027,0 -9.631583,-0.59141 -14.193907,-1.68975 0.168975,2.19667 -0.253457,4.56232 -1.858718,5.66066 -0.675901,0.50693 -1.436296,0.92936 -2.027704,1.3518 1.351803,0.25346 2.788088,0.42244 4.308866,0.6759 0.168976,-0.0845 0.253458,0 0.422433,0 4.139891,0.42244 8.53324,0.6759 13.18006,0.6759 z"
     id="path8"
     style="stroke-width:0.0844875" />
  <path
     fill="#fec093"
     d="m 98.77051,101.01188 c 5.06925,0 9.88504,-0.59141 14.36288,-1.858727 0.42243,-1.098338 1.01385,-2.36565 2.0277,-3.210526 2.19667,-1.943212 6.25207,-6.674513 8.1108,-16.728527 0.16897,-0.506925 0.50692,-1.01385 1.01385,-1.182825 0.0844,-0.08448 5.57618,-2.36565 6.33656,-6.590026 0.50693,-2.703601 -1.01384,-5.745151 -4.47783,-9.124651 -0.59142,-0.506925 -0.6759,-1.3518 -0.33795,-2.0277 4.0554,-7.265926 4.90027,-13.518002 4.13988,-18.67174 -2.0277,-4.731301 -8.02632,-3.210525 -17.48891,-0.33795 -5.82964,1.774238 -11.82826,3.548476 -17.31994,3.210525 -5.91413,-0.33795 -10.222996,-3.210525 -12.673133,-8.702214 -5.745152,3.041551 -9.293624,7.857339 -10.729909,14.61634 -1.098345,5.576176 -0.253468,10.307476 -0.253468,10.391964 0.168975,0.6759 -0.168976,1.267313 -0.675902,1.68975 -3.379496,3.295013 -4.815781,6.252075 -4.308855,8.955676 0.760384,4.224376 6.252066,6.505538 6.33656,6.590026 0.506926,0.168975 0.844877,0.6759 1.013852,1.182825 1.858718,9.969527 5.829633,14.700827 8.026313,16.64404 1.013853,0.844875 1.605261,2.027701 2.027694,3.126038 4.646817,1.351802 9.631588,2.027702 14.869808,2.027702 z"
     id="path10"
     style="stroke-width:0.0844875" />
  <path
     fill="#b3b3b3"
     d="m 54.668029,94.337365 c 0.33795,-1.3518 0.506927,-2.703601 0.506927,-4.0554 0,-1.351801 -0.168977,-2.703601 -0.506927,-4.055401 -0.168975,-0.760387 0.168976,-1.436288 0.844877,-1.858725 l 4.646806,-2.7036 -3.970904,-6.84349 -4.646816,2.703601 c -0.675902,0.337951 -1.52078,0.253463 -2.027705,-0.253462 -2.027693,-1.858726 -4.393349,-3.210525 -7.012461,-4.055401 -0.675902,-0.168976 -1.182828,-0.844875 -1.182828,-1.605263 v -5.322713 h -7.94182 v 5.322713 c 0,0.760388 -0.506926,1.436287 -1.182827,1.605263 -2.619112,0.844876 -5.069249,2.196675 -7.01246,4.055401 -0.506926,0.506925 -1.351803,0.591413 -2.027706,0.253462 l -4.646807,-2.703601 -3.970916,6.84349 4.646806,2.7036 c 0.675902,0.33795 0.929371,1.098338 0.760395,1.858725 -0.253468,1.3518 -0.422444,2.7036 -0.422444,4.055401 0,1.351799 0.168976,2.7036 0.422444,4.0554 0.168976,0.760388 -0.168975,1.436287 -0.760395,1.858725 l -4.646806,2.703601 3.970916,6.843489 4.646807,-2.7036 c 0.675903,-0.42244 1.436286,-0.33795 2.027705,0.16897 1.943212,1.85873 4.393348,3.29502 7.01246,4.0554 0.675902,0.25347 1.182827,0.92937 1.182827,1.60527 v 5.4072 h 7.941821 v -5.4072 c 0,-0.6759 0.422444,-1.3518 1.182828,-1.60527 2.619112,-0.76038 5.06925,-2.19667 7.01246,-4.0554 0.506926,-0.50692 1.351805,-0.59141 2.027706,-0.16897 l 4.646817,2.7036 3.970904,-6.843489 -4.646806,-2.703601 c -0.675902,-0.33795 -1.013853,-1.098337 -0.844878,-1.858725 z m -4.393348,-4.0554 c -0.08444,7.09695 -5.829645,12.842105 -12.926587,12.842105 -7.096954,0 -12.842106,-5.745155 -12.842106,-12.842105 0,-7.096951 5.745152,-12.926589 12.842106,-12.926589 7.096942,0 12.926587,5.74515 12.926587,12.926589 z"
     id="path12"
     style="stroke-width:0.0844875" />
  <path
     fill="#6b809b"
     d="m 66.496282,116.05066 c -10.729919,4.13989 -15.799167,9.29362 -18.08033,12.84209 -2.53463,3.88644 -2.53463,6.8435 -2.53463,6.8435 v 0 16.72853 h 44.947359 l -1.26731,-11.99723 -2.112187,-2.78809 -7.350411,5.99861 c -0.168976,0.33795 -0.59142,0.42245 -1.013853,0.42245 -0.08444,0 -0.253468,0 -0.422444,0 -0.506926,-0.16898 -0.929359,-0.50693 -1.098334,-1.01386 z"
     id="path14"
     style="stroke-width:0.0844875" />
  <polygon
     fill="#fd003a"
     points="991,1663 1094,1663 1108,1533 978,1533 "
     id="polygon16"
     transform="matrix(0.08448751,0,0,0.08448751,10.481054,11.962041)" />
  <path
     fill="#4d5e78"
     d="m 107.55721,140.46755 -1.26731,11.99723 h 44.94736 v -16.72853 0 c 0,-0.0844 0,-3.29501 -2.95706,-7.4349 -2.45014,-3.46399 -7.5194,-8.27978 -17.74238,-12.25069 l -10.98338,27.036 c -0.25347,0.50693 -0.6759,0.84488 -1.18283,1.01386 -0.0845,0 -0.25345,0 -0.33795,0 -0.42243,0 -0.76038,-0.0846 -1.09833,-0.33796 l -7.26593,-6.0831 z"
     id="path18"
     style="stroke-width:0.0844875" />
  <path
     fill="#7a432a"
     d="m 84.914554,32.914944 c 3.970915,11.067864 13.095566,9.209139 26.613576,5.153738 4.56232,-1.351799 8.95567,-2.7036 12.58863,-2.788088 1.52078,-0.08448 2.87259,0.08448 4.0554,0.506925 -1.43628,-3.210525 -3.46399,-5.914126 -5.66066,-8.026313 C 112.03505,17.200267 94.37715,13.567304 88.463037,16.693341 c -1.436297,0.844876 -1.943223,1.858726 -1.605272,3.548476 0.08444,0.422437 0,0.929362 -0.337951,1.351801 -0.253457,0.33795 -0.67589,0.591413 -1.182816,0.675899 -8.955684,0.6759 -14.954293,3.717452 -17.826874,8.955677 -3.463978,6.421051 -1.689742,15.123265 0.506926,21.290852 0.08444,-0.844874 0.168976,-1.774237 0.422444,-2.7036 1.689743,-8.279775 6.590029,-14.531852 14.193898,-17.826865 0.422444,-0.253462 0.929359,-0.253462 1.351803,0 0.422433,0.168975 0.760383,0.506926 0.929359,0.929363 z"
     id="path20"
     style="stroke-width:0.0844875" />
</svg>
